<?xml version="1.0" standalone="no"?>
<!DOCTYPE svg PUBLIC "-//W3C//DTD SVG 20010904//EN"
 "http://www.w3.org/TR/2001/REC-SVG-20010904/DTD/svg10.dtd">
<svg version="1.0" xmlns="http://www.w3.org/2000/svg"
 width="16.000000pt" height="16.000000pt" viewBox="0 0 16.000000 16.000000"
 preserveAspectRatio="xMidYMid meet">
<metadata>
Created by potrace 1.11, written by Peter Selinger 2001-2013
</metadata>
<g transform="translate(0.000000,16.000000) scale(0.004040,-0.004040)"
fill="#000000" stroke="none">
<path d="M1577 3839 c-53 -61 -97 -119 -97 -128 0 -9 39 -56 88 -104 l87 -89
-40 6 c-22 4 -74 16 -115 27 -104 28 -145 33 -172 18 -40 -21 -198 -197 -198
-221 0 -6 21 -29 47 -52 25 -22 105 -102 177 -176 269 -275 635 -631 674 -654
11 -6 22 0 41 21 14 17 43 50 64 74 20 24 37 48 36 54 0 5 -20 26 -43 45 -71
58 -423 413 -401 405 26 -9 102 -32 310 -93 94 -28 197 -60 229 -72 114 -43
156 -51 187 -34 16 8 33 22 38 32 5 9 35 42 65 72 31 30 56 60 56 65 0 6 -42
49 -92 95 -51 47 -258 250 -460 453 -202 202 -371 367 -376 367 -5 0 -52 -50
-105 -111z"/>
<path d="M896 3091 l-69 -70 30 -28 c16 -15 56 -53 89 -84 32 -30 132 -132
220 -225 89 -93 201 -209 249 -259 106 -109 125 -138 125 -191 0 -76 -72 -144
-152 -144 -50 0 -136 33 -200 78 -29 19 -179 163 -333 318 l-280 282 -27 -28
c-16 -16 -28 -32 -28 -36 0 -3 89 -95 198 -203 110 -108 215 -214 234 -236 48
-54 174 -174 223 -212 80 -61 129 -79 242 -90 54 -5 69 -2 117 21 65 32 118
89 155 166 21 45 26 69 26 135 0 142 -46 215 -277 440 -85 83 -220 214 -301
293 -80 78 -152 142 -159 142 -8 0 -44 -31 -82 -69z"/>
<path d="M2632 2667 c-67 -22 -130 -64 -197 -132 -55 -54 -165 -188 -165 -199
0 -4 100 -108 223 -230 122 -123 272 -274 332 -337 143 -148 323 -313 345
-317 11 -2 32 15 56 45 22 26 61 72 89 101 27 30 53 59 57 67 5 8 -15 32 -60
71 -37 32 -87 77 -112 100 -25 23 -63 57 -85 75 -78 67 -130 121 -110 114 11
-3 121 -39 245 -80 124 -40 243 -81 264 -90 l39 -16 90 91 c52 52 86 95 81 99
-5 5 -94 32 -199 61 -104 28 -203 55 -220 60 -16 4 -55 15 -85 23 -112 31
-110 30 -110 92 0 30 0 56 0 58 1 8 -41 120 -59 154 -45 90 -168 183 -260 198
-78 13 -102 12 -159 -8z m157 -327 c45 -44 54 -88 27 -126 -13 -17 -16 -17
-29 -4 -120 129 -119 128 -107 149 18 35 61 27 109 -19z"/>
<path d="M288 2508 c-34 -36 -48 -58 -46 -74 2 -15 115 -135 304 -326 186
-187 309 -319 323 -345 44 -87 38 -170 -17 -230 -52 -58 -113 -75 -183 -52
-61 21 -172 102 -258 188 l-84 84 -26 -30 c-14 -16 -38 -43 -52 -60 -16 -18
-24 -35 -19 -43 4 -7 52 -57 106 -112 163 -164 249 -210 399 -212 83 -1 96 2
155 31 83 41 166 121 198 191 21 47 24 64 19 126 -5 81 -28 140 -92 235 -54
81 -82 112 -396 428 -138 139 -259 253 -267 253 -9 0 -38 -23 -64 -52z"/>
<path d="M1967 2082 c-59 -59 -107 -112 -107 -119 0 -6 59 -67 132 -134 211
-199 400 -397 423 -446 46 -97 -39 -198 -128 -152 -12 6 -151 140 -310 297
l-287 286 -32 -30 c-17 -16 -44 -43 -60 -61 -16 -17 -56 -59 -89 -91 -32 -33
-59 -64 -59 -69 0 -6 37 -46 81 -89 115 -112 243 -240 397 -399 185 -190 279
-246 409 -246 75 -1 95 4 168 40 112 56 220 166 257 263 56 148 6 341 -138
528 -44 58 -418 440 -486 497 -22 18 -45 33 -52 33 -6 0 -60 -48 -119 -108z"/>
<path d="M1239 1323 c-92 -85 -114 -107 -179 -183 -36 -41 -105 -114 -154
-161 -88 -85 -89 -87 -74 -110 8 -13 82 -89 163 -169 81 -80 191 -190 244
-245 53 -55 176 -180 273 -278 l178 -179 245 248 c135 136 245 252 245 258 0
17 -146 159 -159 155 -6 -2 -106 -98 -221 -214 l-210 -209 -63 62 c-38 39 -58
65 -51 70 6 4 39 40 73 79 63 75 201 212 227 226 25 14 16 31 -50 96 -58 58
-67 63 -83 51 -10 -8 -86 -83 -169 -167 l-151 -154 -127 131 c-70 73 -126 135
-124 140 8 21 337 347 406 403 21 16 21 19 6 42 -23 36 -160 155 -177 155 -9
0 -39 -21 -68 -47z"/>
</g>
</svg>
